<svg width="42" height="30" viewBox="0 0 42 30" fill="none" xmlns="http://www.w3.org/2000/svg">
<path d="M15.6484 0.914062L14.5156 28.6875L6 28.2969L6.46875 9.82031L3.34375 11.9688L0.414062 5.28906L6.78125 0.523438L15.6484 0.914062ZM41.293 15.0156C41.293 16.1615 41.1628 17.3008 40.9023 18.4336C40.6549 19.5664 40.2904 20.6536 39.8086 21.6953C39.3268 22.737 38.7344 23.707 38.0312 24.6055C37.3411 25.5039 36.5469 26.2852 35.6484 26.9492C34.75 27.6133 33.7604 28.1341 32.6797 28.5117C31.612 28.8893 30.4596 29.0781 29.2227 29.0781C27.9727 29.0781 26.8073 28.8893 25.7266 28.5117C24.6458 28.1341 23.6562 27.6133 22.7578 26.9492C21.8724 26.2852 21.0781 25.5039 20.375 24.6055C19.6719 23.707 19.0794 22.737 18.5977 21.6953C18.1159 20.6536 17.7448 19.5664 17.4844 18.4336C17.237 17.2878 17.1133 16.1484 17.1133 15.0156C17.1133 13.8828 17.237 12.7435 17.4844 11.5977C17.7448 10.4518 18.1159 9.35807 18.5977 8.31641C19.0794 7.27474 19.6719 6.30469 20.375 5.40625C21.0781 4.49479 21.8724 3.70703 22.7578 3.04297C23.6562 2.37891 24.6458 1.85807 25.7266 1.48047C26.8203 1.10286 27.9857 0.914062 29.2227 0.914062C30.4596 0.914062 31.612 1.10286 32.6797 1.48047C33.7604 1.85807 34.75 2.37891 35.6484 3.04297C36.5469 3.70703 37.3411 4.49479 38.0312 5.40625C38.7344 6.30469 39.3268 7.27474 39.8086 8.31641C40.2904 9.35807 40.6549 10.4518 40.9023 11.5977C41.1628 12.7435 41.293 13.8828 41.293 15.0156ZM33.0508 15.6016C33.0508 15.0286 32.9727 14.3906 32.8164 13.6875C32.6602 12.9844 32.4193 12.3268 32.0938 11.7148C31.7682 11.1029 31.3516 10.5885 30.8438 10.1719C30.3359 9.75521 29.7305 9.54688 29.0273 9.54688C28.3112 9.54688 27.6992 9.75521 27.1914 10.1719C26.6836 10.5885 26.2604 11.1029 25.9219 11.7148C25.5964 12.3268 25.3555 12.9844 25.1992 13.6875C25.043 14.3906 24.9648 15.0286 24.9648 15.6016C24.9648 16.1745 25.043 16.8125 25.1992 17.5156C25.3555 18.2188 25.5964 18.8763 25.9219 19.4883C26.2604 20.1003 26.6836 20.6146 27.1914 21.0312C27.6992 21.4479 28.3112 21.6562 29.0273 21.6562C29.7305 21.6562 30.3359 21.4479 30.8438 21.0312C31.3516 20.6146 31.7682 20.1003 32.0938 19.4883C32.4193 18.8763 32.6602 18.2188 32.8164 17.5156C32.9727 16.8125 33.0508 16.1745 33.0508 15.6016Z" fill="#B4B4B4"/>
</svg>
