<svg width="21" height="30" viewBox="0 0 21 30" fill="none" xmlns="http://www.w3.org/2000/svg">
<path d="M20.8203 19.1562C20.8203 20.849 20.5143 22.3203 19.9023 23.5703C19.3034 24.8203 18.4831 25.8555 17.4414 26.6758C16.3997 27.4961 15.1758 28.1081 13.7695 28.5117C12.3633 28.9154 10.8594 29.1172 9.25781 29.1172C8.48958 29.1172 7.73438 29.0651 6.99219 28.9609C6.25 28.8438 5.51432 28.694 4.78516 28.5117C4.06901 28.3164 3.35286 28.0951 2.63672 27.8477C1.93359 27.6003 1.22396 27.3333 0.507812 27.0469L1.25 19.2734C1.71875 19.5339 2.22005 19.7747 2.75391 19.9961C3.28776 20.2174 3.83464 20.4062 4.39453 20.5625C4.96745 20.7188 5.54036 20.8424 6.11328 20.9336C6.69922 21.0247 7.26562 21.0703 7.8125 21.0703C8.13802 21.0703 8.53516 21.0443 9.00391 20.9922C9.47266 20.9271 9.92188 20.8164 10.3516 20.6602C10.7812 20.4909 11.1458 20.2695 11.4453 19.9961C11.7578 19.7096 11.9141 19.3385 11.9141 18.8828C11.9141 18.4531 11.7904 18.082 11.543 17.7695C11.3086 17.457 10.9961 17.2031 10.6055 17.0078C10.2279 16.7995 9.79818 16.6367 9.31641 16.5195C8.83464 16.4023 8.34635 16.3112 7.85156 16.2461C7.36979 16.181 6.90755 16.1419 6.46484 16.1289C6.03516 16.1159 5.67708 16.1094 5.39062 16.1094C4.80469 16.1094 4.20573 16.1354 3.59375 16.1875C2.99479 16.2396 2.40885 16.3438 1.83594 16.5L2.61719 0.71875L18.4375 0.289062L18.8672 8.45312L9.0625 7.90625L8.86719 11.3828C9.45312 11.2396 10.0391 11.1354 10.625 11.0703C11.2109 10.9922 11.7969 10.9531 12.3828 10.9531C13.5677 10.9531 14.668 11.1484 15.6836 11.5391C16.7122 11.9167 17.6042 12.4635 18.3594 13.1797C19.1276 13.8958 19.7266 14.7617 20.1562 15.7773C20.599 16.7799 20.8203 17.9062 20.8203 19.1562Z" fill="#B4B4B4"/>
</svg>
