<svg width="23" height="30" viewBox="0 0 23 30" fill="none" xmlns="http://www.w3.org/2000/svg">
<path d="M22.6172 19.0391C22.6172 20.6276 22.3372 22.0729 21.7773 23.375C21.2174 24.6641 20.4427 25.7708 19.4531 26.6953C18.4766 27.6068 17.3112 28.3164 15.957 28.8242C14.6029 29.332 13.138 29.5859 11.5625 29.5859C10.2734 29.5859 9.10807 29.4102 8.06641 29.0586C7.03776 28.707 6.11328 28.2188 5.29297 27.5938C4.48568 26.9688 3.78906 26.2266 3.20312 25.3672C2.61719 24.5078 2.12891 23.5768 1.73828 22.5742C1.36068 21.5716 1.08073 20.5104 0.898438 19.3906C0.716146 18.2708 0.625 17.138 0.625 15.9922C0.625 14.5859 0.729167 13.2188 0.9375 11.8906C1.14583 10.5495 1.46484 9.29297 1.89453 8.12109C2.33724 6.94922 2.90365 5.86849 3.59375 4.87891C4.28385 3.88932 5.10417 3.04297 6.05469 2.33984C7.00521 1.63672 8.09245 1.08984 9.31641 0.699219C10.5534 0.295573 11.9401 0.09375 13.4766 0.09375C14.0365 0.09375 14.6094 0.119792 15.1953 0.171875C15.7812 0.210938 16.3672 0.289062 16.9531 0.40625C17.5391 0.523438 18.1055 0.679688 18.6523 0.875C19.2122 1.07031 19.7396 1.31771 20.2344 1.61719L19.6484 9.3125C18.724 8.85677 17.7214 8.51172 16.6406 8.27734C15.5729 8.02995 14.5312 7.90625 13.5156 7.90625C12.7083 7.90625 12.0117 8.02995 11.4258 8.27734C10.8398 8.51172 10.3451 8.85026 9.94141 9.29297C9.53776 9.73568 9.21875 10.2695 8.98438 10.8945C8.76302 11.5065 8.61979 12.1901 8.55469 12.9453C9.41406 12.4505 10.332 12.0599 11.3086 11.7734C12.2852 11.487 13.2812 11.3438 14.2969 11.3438C15.4427 11.3438 16.5234 11.5195 17.5391 11.8711C18.5547 12.2227 19.4336 12.7305 20.1758 13.3945C20.931 14.0586 21.5234 14.8659 21.9531 15.8164C22.3958 16.7669 22.6172 17.8411 22.6172 19.0391ZM15.1953 19.625C15.1953 19.2214 15.1042 18.8633 14.9219 18.5508C14.7526 18.2253 14.5247 17.9518 14.2383 17.7305C13.9648 17.4961 13.6458 17.3203 13.2812 17.2031C12.9167 17.0729 12.5521 17.0078 12.1875 17.0078C11.8229 17.0078 11.4648 17.0729 11.1133 17.2031C10.7617 17.3203 10.4427 17.4961 10.1562 17.7305C9.88281 17.9518 9.65495 18.2253 9.47266 18.5508C9.30339 18.8633 9.21875 19.2214 9.21875 19.625C9.21875 20.0156 9.30339 20.3737 9.47266 20.6992C9.65495 21.0117 9.88281 21.2786 10.1562 21.5C10.4427 21.7214 10.7617 21.8971 11.1133 22.0273C11.4648 22.1445 11.8229 22.2031 12.1875 22.2031C12.5521 22.2031 12.9167 22.1445 13.2812 22.0273C13.6458 21.8971 13.9648 21.7214 14.2383 21.5C14.5247 21.2786 14.7526 21.0117 14.9219 20.6992C15.1042 20.3737 15.1953 20.0156 15.1953 19.625Z" fill="#B4B4B4"/>
</svg>
