<svg width="23" height="30" viewBox="0 0 23 30" fill="none" xmlns="http://www.w3.org/2000/svg">
<path d="M22.2852 20.3672C22.2852 21.4219 22.1419 22.3659 21.8555 23.1992C21.569 24.0326 21.1719 24.7747 20.6641 25.4258C20.1693 26.0638 19.5768 26.6107 18.8867 27.0664C18.2096 27.5221 17.4609 27.8997 16.6406 28.1992C15.8333 28.4857 14.9805 28.7005 14.082 28.8438C13.1836 28.974 12.2721 29.0391 11.3477 29.0391C10.0326 29.0391 8.73047 28.8633 7.44141 28.5117C6.16536 28.1602 5.01302 27.6263 3.98438 26.9102C2.96875 26.181 2.14193 25.276 1.50391 24.1953C0.878906 23.1146 0.566406 21.8385 0.566406 20.3672C0.566406 19.7682 0.638021 19.1693 0.78125 18.5703C0.924479 17.9583 1.13281 17.3789 1.40625 16.832C1.67969 16.2852 2.02474 15.7904 2.44141 15.3477C2.85807 14.9049 3.33984 14.5339 3.88672 14.2344C3.02734 13.4661 2.38281 12.5872 1.95312 11.5977C1.52344 10.5951 1.30859 9.52083 1.30859 8.375C1.30859 7.03385 1.60156 5.86198 2.1875 4.85938C2.78646 3.84375 3.5612 2.9974 4.51172 2.32031C5.47526 1.63021 6.55599 1.11589 7.75391 0.777344C8.95182 0.425781 10.1497 0.25 11.3477 0.25C12.1419 0.25 12.9362 0.328125 13.7305 0.484375C14.5378 0.640625 15.3125 0.86849 16.0547 1.16797C16.7969 1.46745 17.487 1.84505 18.125 2.30078C18.776 2.75651 19.3359 3.29036 19.8047 3.90234C20.2865 4.5013 20.6641 5.17839 20.9375 5.93359C21.2109 6.67578 21.3477 7.48958 21.3477 8.375C21.3477 9.52083 21.1328 10.5951 20.7031 11.5977C20.2734 12.5872 19.6289 13.4661 18.7695 14.2344C20.0195 14.8854 20.918 15.7253 21.4648 16.7539C22.0117 17.7826 22.2852 18.987 22.2852 20.3672ZM14.5898 10.25C14.5898 9.82031 14.4922 9.4362 14.2969 9.09766C14.1146 8.74609 13.8672 8.44661 13.5547 8.19922C13.2422 7.95182 12.8906 7.76302 12.5 7.63281C12.1224 7.5026 11.7383 7.4375 11.3477 7.4375C10.944 7.4375 10.5469 7.5026 10.1562 7.63281C9.76562 7.76302 9.41406 7.95182 9.10156 8.19922C8.78906 8.44661 8.53516 8.74609 8.33984 9.09766C8.15755 9.4362 8.06641 9.82031 8.06641 10.25C8.06641 10.6797 8.15755 11.0703 8.33984 11.4219C8.53516 11.7604 8.78906 12.0469 9.10156 12.2812C9.41406 12.5156 9.76562 12.6979 10.1562 12.8281C10.5469 12.9583 10.944 13.0234 11.3477 13.0234C11.7383 13.0234 12.1224 12.9583 12.5 12.8281C12.8906 12.6979 13.2422 12.5156 13.5547 12.2812C13.8672 12.0469 14.1146 11.7604 14.2969 11.4219C14.4922 11.0703 14.5898 10.6797 14.5898 10.25ZM14.5508 19.4297C14.5508 19 14.4531 18.6159 14.2578 18.2773C14.0755 17.9258 13.8346 17.6328 13.5352 17.3984C13.2357 17.1641 12.8906 16.9818 12.5 16.8516C12.1224 16.7214 11.7383 16.6562 11.3477 16.6562C10.957 16.6562 10.5664 16.7214 10.1758 16.8516C9.79818 16.9818 9.45312 17.1641 9.14062 17.3984C8.82812 17.6328 8.57422 17.9258 8.37891 18.2773C8.19661 18.6159 8.10547 19 8.10547 19.4297C8.10547 19.8464 8.19661 20.224 8.37891 20.5625C8.57422 20.901 8.82812 21.1875 9.14062 21.4219C9.45312 21.6562 9.79818 21.8385 10.1758 21.9688C10.5664 22.099 10.957 22.1641 11.3477 22.1641C11.7383 22.1641 12.1224 22.099 12.5 21.9688C12.8906 21.8385 13.2357 21.6562 13.5352 21.4219C13.8346 21.1875 14.0755 20.901 14.2578 20.5625C14.4531 20.224 14.5508 19.8464 14.5508 19.4297Z" fill="#B4B4B4"/>
</svg>
