<svg width="22" height="29" viewBox="0 0 22 29" fill="none" xmlns="http://www.w3.org/2000/svg">
<path d="M21.5625 13.0234C21.5625 14.2604 21.4648 15.5104 21.2695 16.7734C21.0742 18.0234 20.7682 19.2409 20.3516 20.4258C19.9479 21.5977 19.4271 22.6979 18.7891 23.7266C18.151 24.7552 17.3893 25.6536 16.5039 26.4219C15.6185 27.1771 14.5964 27.776 13.4375 28.2188C12.2917 28.6615 11.0026 28.8828 9.57031 28.8828C8.94531 28.8828 8.28776 28.8568 7.59766 28.8047C6.92057 28.7396 6.24349 28.6419 5.56641 28.5117C4.90234 28.3685 4.2513 28.1797 3.61328 27.9453C2.97526 27.6979 2.39583 27.3854 1.875 27.0078L2.89062 19.625C3.29427 19.8594 3.75 20.0807 4.25781 20.2891C4.76562 20.4844 5.28646 20.6602 5.82031 20.8164C6.35417 20.9727 6.88802 21.0964 7.42188 21.1875C7.95573 21.2656 8.46354 21.3047 8.94531 21.3047C9.70052 21.3047 10.3516 21.2005 10.8984 20.9922C11.4583 20.7708 11.9271 20.4583 12.3047 20.0547C12.6953 19.651 13.0078 19.1693 13.2422 18.6094C13.4766 18.0365 13.6458 17.3984 13.75 16.6953C12.9688 17.112 12.1484 17.431 11.2891 17.6523C10.4297 17.8737 9.55729 17.9844 8.67188 17.9844C7.57812 17.9844 6.53646 17.8151 5.54688 17.4766C4.55729 17.138 3.69141 16.6562 2.94922 16.0312C2.20703 15.3932 1.61458 14.6185 1.17188 13.707C0.729167 12.7956 0.507812 11.7604 0.507812 10.6016C0.507812 9.11719 0.77474 7.75651 1.30859 6.51953C1.85547 5.28255 2.59766 4.22135 3.53516 3.33594C4.47266 2.45052 5.57943 1.76042 6.85547 1.26562C8.14453 0.770833 9.53125 0.523438 11.0156 0.523438C12.8255 0.523438 14.388 0.861979 15.7031 1.53906C17.0312 2.20312 18.125 3.10807 18.9844 4.25391C19.8568 5.38672 20.5013 6.70833 20.918 8.21875C21.3477 9.72917 21.5625 11.3307 21.5625 13.0234ZM13.4766 10.1719C13.4766 9.78125 13.3854 9.42969 13.2031 9.11719C13.0339 8.80469 12.8125 8.53776 12.5391 8.31641C12.2656 8.09505 11.9531 7.92578 11.6016 7.80859C11.25 7.69141 10.8984 7.63281 10.5469 7.63281C10.1953 7.63281 9.85026 7.69141 9.51172 7.80859C9.17318 7.91276 8.86719 8.07552 8.59375 8.29688C8.32031 8.50521 8.09896 8.76562 7.92969 9.07812C7.77344 9.3776 7.69531 9.71615 7.69531 10.0938C7.69531 10.4714 7.77995 10.8164 7.94922 11.1289C8.13151 11.4414 8.35938 11.7083 8.63281 11.9297C8.90625 12.151 9.21875 12.3268 9.57031 12.457C9.92188 12.5742 10.2734 12.6328 10.625 12.6328C10.9766 12.6328 11.3216 12.5742 11.6602 12.457C11.9987 12.3398 12.3047 12.1771 12.5781 11.9688C12.8516 11.7474 13.0664 11.487 13.2227 11.1875C13.3919 10.888 13.4766 10.5495 13.4766 10.1719Z" fill="#B4B4B4"/>
</svg>
